<svg width="22" height="18" viewBox="0 0 22 18" fill="none" xmlns="http://www.w3.org/2000/svg">
<path d="M15.5833 17.1V15.3C15.5833 12.8148 13.5313 10.8 11 10.8H4.58333C2.05203 10.8 0 12.8148 0 15.3V17.1C0 17.5971 0.410406 18 0.916667 18C1.42293 18 1.83333 17.5971 1.83333 17.1V15.3C1.83333 13.8089 3.06455 12.6 4.58333 12.6H11C12.5188 12.6 13.75 13.8089 13.75 15.3V17.1C13.75 17.5971 14.1604 18 14.6667 18C15.1729 18 15.5833 17.5971 15.5833 17.1Z" fill="#BAB7BE"/>
<path fill-rule="evenodd" clip-rule="evenodd" d="M12.3752 4.5C12.3752 6.98528 10.3231 9 7.79183 9C5.26052 9 3.2085 6.98528 3.2085 4.5C3.2085 2.01472 5.26052 0 7.79183 0C10.3231 0 12.3752 2.01472 12.3752 4.5ZM5.04183 4.5C5.04183 5.99117 6.27305 7.2 7.79183 7.2C9.31061 7.2 10.5418 5.99117 10.5418 4.5C10.5418 3.00883 9.31061 1.8 7.79183 1.8C6.27305 1.8 5.04183 3.00883 5.04183 4.5Z" fill="#BAB7BE"/>
<path d="M17.4165 5.4V10.8C17.4165 11.2971 17.8269 11.7 18.3332 11.7C18.8394 11.7 19.2498 11.2971 19.2498 10.8V5.4C19.2498 4.90294 18.8394 4.5 18.3332 4.5C17.8269 4.5 17.4165 4.90294 17.4165 5.4Z" fill="#BAB7BE"/>
<path d="M21.0832 7.19995H15.5832C15.0769 7.19995 14.6665 7.60289 14.6665 8.09995C14.6665 8.59701 15.0769 8.99995 15.5832 8.99995H21.0832C21.5894 8.99995 21.9998 8.59701 21.9998 8.09995C21.9998 7.60289 21.5894 7.19995 21.0832 7.19995Z" fill="#BAB7BE"/>
</svg>
