<svg width="9" height="8" viewBox="0 0 9 8" fill="none" xmlns="http://www.w3.org/2000/svg">
<path d="M3.90172 7.538C3.80839 7.538 3.72439 7.50533 3.64972 7.44C3.58439 7.36533 3.55172 7.28133 3.55172 7.188V4.654H1.08772C0.994385 4.654 0.910385 4.62133 0.835719 4.556C0.770385 4.48133 0.737719 4.39733 0.737719 4.304V3.226C0.737719 3.12333 0.770385 3.03933 0.835719 2.974C0.901052 2.89933 0.985052 2.862 1.08772 2.862H3.55172V0.411999C3.55172 0.309333 3.58439 0.225333 3.64972 0.16C3.72439 0.0946664 3.80839 0.0619996 3.90172 0.0619996H5.10572C5.20839 0.0619996 5.29239 0.0946664 5.35772 0.16C5.43239 0.225333 5.46972 0.309333 5.46972 0.411999V2.862H7.90572C8.00839 2.862 8.09239 2.89933 8.15772 2.974C8.23239 3.03933 8.26972 3.12333 8.26972 3.226V4.304C8.26972 4.40667 8.23239 4.49067 8.15772 4.556C8.09239 4.62133 8.00839 4.654 7.90572 4.654H5.46972V7.188C5.46972 7.29067 5.43239 7.37467 5.35772 7.44C5.29239 7.50533 5.20839 7.538 5.10572 7.538H3.90172Z" fill="#550FED"/>
</svg>
