<svg width="18" height="18" viewBox="0 0 18 18" fill="none" xmlns="http://www.w3.org/2000/svg">
<path fill-rule="evenodd" clip-rule="evenodd" d="M17.7364 16.4636L13.6584 12.3856C14.6865 11.0831 15.3 9.43818 15.3 7.65C15.3 3.42502 11.875 0 7.65 0C3.42502 0 0 3.42502 0 7.65C0 11.875 3.42502 15.3 7.65 15.3C9.43818 15.3 11.0831 14.6865 12.3856 13.6584L16.4636 17.7364C16.8151 18.0879 17.3849 18.0879 17.7364 17.7364C18.0879 17.3849 18.0879 16.8151 17.7364 16.4636ZM13.5 7.65C13.5 9.23613 12.8688 10.6748 11.8438 11.7286C11.8231 11.7458 11.803 11.7642 11.7836 11.7836C11.7642 11.803 11.7458 11.8231 11.7286 11.8438C10.6748 12.8688 9.23613 13.5 7.65 13.5C4.41913 13.5 1.8 10.8809 1.8 7.65C1.8 4.41913 4.41913 1.8 7.65 1.8C10.8809 1.8 13.5 4.41913 13.5 7.65Z" fill="white"/>
</svg>
