<svg width="16" height="18" viewBox="0 0 16 18" fill="none" xmlns="http://www.w3.org/2000/svg">
<path fill-rule="evenodd" clip-rule="evenodd" d="M10.4 1.63636V0.818182C10.4 0.366312 10.7582 0 11.2 0C11.6418 0 12 0.366312 12 0.818182V1.63636H13.6C14.9255 1.63636 16 2.7353 16 4.09091V7.36364V15.5455C16 16.9011 14.9255 18 13.6 18H2.4C1.07452 18 0 16.9011 0 15.5455V7.36364V4.09091C0 2.7353 1.07452 1.63636 2.4 1.63636H4V0.818182C4 0.366312 4.35817 0 4.8 0C5.24183 0 5.6 0.366312 5.6 0.818182V1.63636H10.4ZM1.6 8.18182V15.5455C1.6 15.9973 1.95817 16.3636 2.4 16.3636H13.6C14.0418 16.3636 14.4 15.9973 14.4 15.5455V8.18182H1.6ZM14.4 6.54545H1.6V4.09091C1.6 3.63904 1.95817 3.27273 2.4 3.27273H4V4.09091C4 4.54278 4.35817 4.90909 4.8 4.90909C5.24183 4.90909 5.6 4.54278 5.6 4.09091V3.27273H10.4V4.09091C10.4 4.54278 10.7582 4.90909 11.2 4.90909C11.6418 4.90909 12 4.54278 12 4.09091V3.27273H13.6C14.0418 3.27273 14.4 3.63904 14.4 4.09091V6.54545Z" fill="#BAB7BE"/>
</svg>
