<svg width="20" height="24" viewBox="0 0 20 24" fill="none" xmlns="http://www.w3.org/2000/svg">
<path fill-rule="evenodd" clip-rule="evenodd" d="M16.9471 2.73881C14.9803 0.884065 12.3879 -0.0823531 9.64533 0.00550307C4.65067 0.176335 0.526816 3.95903 0.0463674 8.80088C-0.0437168 9.73313 -0.00367936 10.6654 0.176489 11.583C0.181494 11.622 0.201512 11.7343 0.246554 11.91C0.401699 12.5689 0.621905 13.2132 0.912176 13.8282C1.92812 16.1613 4.14019 19.7536 8.91965 23.6193C9.23495 23.8731 9.6153 24 10.0007 24C10.386 24 10.7664 23.8731 11.0817 23.6193C15.8611 19.7487 18.0732 16.1613 19.0891 13.8282C19.3794 13.2132 19.6046 12.5689 19.7548 11.91C19.7998 11.7343 19.8198 11.622 19.8248 11.583C19.9399 10.9826 20 10.3628 20 9.75266C20 7.08281 18.914 4.59355 16.9471 2.73881ZM18.0482 11.2706C18.0482 11.2779 18.0469 11.284 18.0457 11.2901C18.0444 11.2962 18.0432 11.3023 18.0432 11.3097C18.0382 11.3341 18.0232 11.4024 17.9981 11.5098V11.5195C17.873 12.0613 17.6878 12.5982 17.4476 13.1058C17.4426 13.1156 17.4376 13.1254 17.4376 13.1302C16.5067 15.273 14.4648 18.5822 10.0057 22.2136C5.5465 18.5871 3.5046 15.273 2.57373 13.1302C2.56872 13.1205 2.56372 13.1107 2.56372 13.1058C2.32349 12.5982 2.13832 12.0662 2.0132 11.5195V11.5098C1.98818 11.4024 1.97317 11.3341 1.96816 11.3097C1.96816 11.3023 1.96691 11.2962 1.96566 11.2901C1.96441 11.284 1.96316 11.2779 1.96316 11.2706C1.80301 10.5141 1.76297 9.73801 1.83804 8.96683C2.2284 4.99378 5.61156 1.89441 9.70539 1.75775C11.9525 1.67965 14.0795 2.47524 15.696 3.99808C17.3125 5.52092 18.1983 7.56113 18.1983 9.75266C18.1983 10.2603 18.1483 10.7728 18.0482 11.2706ZM4.67569 9.85028C4.67569 6.98519 7.06792 4.657 10.0007 4.657C12.9384 4.657 15.3256 6.99007 15.3256 9.85028C15.3256 11.0851 14.8752 12.2858 14.0494 13.223C13.7241 13.5939 13.1586 13.6379 12.7783 13.3206C12.3979 13.0033 12.3529 12.4518 12.6782 12.0808C13.2237 11.461 13.524 10.6703 13.524 9.85028C13.524 7.95649 11.9425 6.41412 10.0007 6.41412C8.05885 6.41412 6.47737 7.95649 6.47737 9.85028C6.47737 11.7441 8.05885 13.2864 10.0007 13.2864C10.4961 13.2864 10.9015 13.6818 10.9015 14.165C10.9015 14.6482 10.4961 15.0436 10.0007 15.0436C7.06792 15.0436 4.67569 12.7154 4.67569 9.85028Z" fill="white"/>
</svg>
