<svg width="138" height="44" viewBox="0 0 138 44" fill="none" xmlns="http://www.w3.org/2000/svg">
<path d="M0 43.8546L21.0835 43.8557C33.0952 43.8557 42.8324 34.0699 42.8324 21.9996C42.8324 9.92871 33.0952 0.142822 21.0835 0.142822L0 0.143976V43.8546Z" fill="#550FED" fill-opacity="0.3"/>
<path d="M0.101171 0.144287C0.067352 0.144287 0.0338193 0.145441 0 0.145441V43.8561C0.0338193 43.8561 0.067352 43.8572 0.101171 43.8572C12.1082 43.8572 21.8417 34.0718 21.8417 22.0009C21.8417 9.93003 12.1082 0.144287 0.101171 0.144287Z" fill="#550FED"/>
<path fill-rule="evenodd" clip-rule="evenodd" d="M65.6879 13.428C65.7547 13.428 65.8089 13.4828 65.8089 13.5503V29.1254C65.8089 29.1928 65.7548 29.2475 65.6879 29.2478H63.1353C63.1031 29.2477 63.0723 29.2348 63.0496 29.2118C63.0269 29.1889 63.0142 29.1578 63.0143 29.1254V27.9462C62.1476 28.9538 60.7072 29.5704 59.184 29.5704C55.2521 29.5704 52.9023 26.2924 52.9023 23.1233C52.9023 20.0101 55.4761 16.6769 59.3065 16.6769C60.8649 16.6769 62.2266 17.2695 63.0143 18.2763V13.5503C63.0143 13.4828 63.0683 13.428 63.1353 13.428H65.6879ZM59.503 26.8949C61.4593 26.8949 63.1125 25.1676 63.1125 23.1234C63.1125 21.0792 61.4593 19.3518 59.503 19.3518C57.4857 19.3518 55.8445 21.0439 55.8445 23.1234C55.8445 25.2032 57.4857 26.895 59.503 26.895V26.8949ZM80.9847 23.4203C80.984 18.6957 77.2848 16.5707 74.6582 16.5707C70.2926 16.5707 67.9363 19.8829 67.9363 22.9991C67.9363 26.1154 70.2926 29.4275 74.6596 29.4275C76.8076 29.4027 78.8164 28.35 80.315 26.4634C80.3372 26.4354 80.3461 26.399 80.3394 26.3638C80.3321 26.3287 80.3101 26.2984 80.2789 26.2809L78.1036 25.0694C78.0505 25.0395 77.9836 25.0537 77.9471 25.1027C77.0612 26.2842 75.8988 26.9089 74.5842 26.9089C72.7865 26.9089 71.2658 25.6469 71.0612 24.0121H80.8625C80.9296 24.0123 80.9843 23.9578 80.9847 23.8902V23.4203ZM74.312 19.0898C72.7385 19.0898 71.5134 20.0629 71.0822 21.6407H77.6804C77.1462 20.04 75.8973 19.0898 74.312 19.0898ZM94.4549 26.3833C94.4472 26.3512 94.4269 26.3236 94.3986 26.3069H94.3988L92.1514 24.9716C92.0949 24.9376 92.0218 24.955 91.9866 25.0109C91.2489 26.1712 90.2361 26.7594 88.9772 26.7594C86.8364 26.7594 85.2217 25.1427 85.2217 22.9988C85.2217 20.8547 86.8363 19.2381 88.9772 19.2381C90.2367 19.2381 91.2215 19.8107 91.9873 20.988C92.0229 21.043 92.0953 21.06 92.1514 21.0266L94.3988 19.6911C94.4278 19.6739 94.4483 19.6453 94.4554 19.6122C94.4627 19.5793 94.4555 19.5447 94.4369 19.517C93.0687 17.5344 91.2828 16.5707 88.9772 16.5707C84.6151 16.5707 82.2611 19.8829 82.2611 22.9991C82.2611 26.1154 84.6148 29.4275 88.9772 29.4275C91.1976 29.4275 93.2905 28.2969 94.4395 26.4771C94.457 26.4492 94.4626 26.4153 94.4549 26.3833ZM102.259 16.5707C106.589 16.5707 108.925 19.8826 108.925 22.9989C108.925 26.1157 106.589 29.4275 102.259 29.4275C97.9295 29.4275 95.5931 26.1153 95.5931 22.9989C95.5931 19.8826 97.9298 16.5707 102.259 16.5707ZM105.987 22.9988C105.987 25.1428 104.385 26.7597 102.259 26.7597V26.7598C100.134 26.7598 98.5318 25.1428 98.5318 22.9989C98.5318 20.8549 100.134 19.238 102.259 19.238C104.384 19.238 105.987 20.8549 105.987 22.9988ZM113.764 29.1419H111.178C111.109 29.1423 111.053 29.0871 111.053 29.0183V13.5513C111.053 13.4832 111.109 13.428 111.178 13.428H113.764C113.833 13.428 113.889 13.4832 113.889 13.5513V29.0183C113.889 29.0861 113.833 29.1419 113.764 29.1419ZM128.781 17.0142C128.781 16.9468 128.727 16.8921 128.66 16.8921H128.66H126.108C126.041 16.8921 125.987 16.9468 125.987 17.0142V18.1656C125.198 17.1618 123.837 16.5707 122.279 16.5707C118.448 16.5707 115.875 19.8945 115.875 22.9989C115.875 26.159 118.224 29.4275 122.156 29.4275C123.68 29.4275 125.12 28.8127 125.987 27.808V28.9839C125.987 29.0513 126.041 29.1058 126.108 29.1058H128.66C128.727 29.1057 128.781 29.0512 128.781 28.9839V17.0142ZM122.475 26.7597C124.432 26.7597 126.085 25.0372 126.085 22.9988C126.085 20.9603 124.432 19.238 122.475 19.238C120.458 19.238 118.817 20.9253 118.817 22.9989C118.817 25.0728 120.458 26.7598 122.475 26.7598V26.7597ZM137.993 17.1064C138.012 17.053 137.992 16.9933 137.945 16.9623C137.559 16.7098 137.043 16.5707 136.491 16.5707C135.564 16.5707 134.733 17.0767 134.247 17.9155V17.0153C134.247 16.9483 134.192 16.8934 134.126 16.8934H131.738C131.671 16.8934 131.618 16.9481 131.618 17.0155V29.0196C131.617 29.0518 131.63 29.0829 131.653 29.1058C131.675 29.1288 131.706 29.1417 131.738 29.1419H134.273C134.305 29.1417 134.336 29.1288 134.358 29.1058C134.381 29.0829 134.393 29.0518 134.393 29.0196V21.0831C134.393 19.9863 135.235 19.3945 136.027 19.3945C136.246 19.3945 136.685 19.5376 136.903 19.7151C136.933 19.7399 136.973 19.7481 137.011 19.7371C137.048 19.7262 137.078 19.6977 137.091 19.6607L137.993 17.1064Z" fill="#550FED"/>
</svg>
